<?xml version="1.0" encoding="utf-8"?>
<!-- Generator: Adobe Illustrator 22.0.0, SVG Export Plug-In . SVG Version: 6.00 Build 0)  -->
<svg version="1.1" id="Capa_1" xmlns="http://www.w3.org/2000/svg" xmlns:xlink="http://www.w3.org/1999/xlink" x="0px" y="0px"
	 viewBox="0 0 110 66.9" style="enable-background:new 0 0 110 66.9;" xml:space="preserve">
<style type="text/css">
	.st0{fill:url(#SVGID_1_);}
	.st1{fill:url(#SVGID_2_);}
	.st2{fill:url(#SVGID_3_);}
	.st3{fill:url(#SVGID_4_);}
	.st4{fill:#393939;}
</style>
<g>
	<g>
		
			<linearGradient id="SVGID_1_" gradientUnits="userSpaceOnUse" x1="64.5074" y1="110.9343" x2="65.8817" y2="87.3551" gradientTransform="matrix(1 0 0 -1 0 112)">
			<stop  offset="0" style="stop-color:#02FFE2"/>
			<stop  offset="1" style="stop-color:#0088D8"/>
		</linearGradient>
		<path class="st0" d="M81.9,20.1c-0.7-0.8-1-2-1-3.5v-5c0-2.8-0.7-5.1-2-7.1c-0.7-1-1.6-1.8-2.7-2.5c-1.8-1.2-4.1-1.7-6.3-1.7
			c-3.4,0-6.6,1.9-8.2,5L52,24.1H58l9.1-18.2c0.4-0.8,1.3-1.4,2.3-1.4c1.7,0,3.1,1,3.7,2.5c0.5,1.2,0.7,2.7,0.7,4.5v5
			c0,1.7,0.4,3.2,1.1,4.5c0.8,1.3,1.9,2.3,3.4,3.1c-1.5,0.7-2.7,1.8-3.4,3.1s-1.1,2.8-1.1,4.5v5c0,1.8-0.2,3.3-0.7,4.5
			c-0.6,1.5-2,2.5-3.7,2.5H51.2L50.6,45c-0.6,1.2-1.4,2.2-2.5,3h21.7c2.3,0,4.5-0.6,6.4-1.7c1.1-0.7,2-1.5,2.7-2.5
			c1.3-1.9,2-4.3,2-7.1v-5c0-1.5,0.3-2.7,1-3.5c0.7-0.8,1.7-1.3,3-1.3v-2.8v-2.8C83.5,21.3,82.5,20.9,81.9,20.1z"/>
		
			<linearGradient id="SVGID_2_" gradientUnits="userSpaceOnUse" x1="469.9488" y1="72.1182" x2="471.3231" y2="48.5391" gradientTransform="matrix(-1 0 0 1 512.7922 -24.8037)">
			<stop  offset="0" style="stop-color:#76947F"/>
			<stop  offset="1" style="stop-color:#63886E"/>
		</linearGradient>
		<path class="st1" d="M28.2,28.1c0.7,0.8,1,2,1,3.5v5c0,2.8,0.7,5.1,2,7.1c0.7,1,1.6,1.8,2.7,2.5c1.8,1.2,4.1,1.7,6.3,1.7l0,0
			c3.4,0,6.6-1.9,8.2-5L58,24.1h-6l-9.1,18.2c-0.4,0.8-1.3,1.4-2.3,1.4l0,0c-1.7,0-3.1-1-3.7-2.5c-0.5-1.2-0.7-2.7-0.7-4.5v-5
			c0-1.7-0.4-3.2-1.1-4.5c-0.8-1.3-1.9-2.3-3.4-3.1c1.5-0.7,2.7-1.8,3.4-3.1c0.8-1.3,1.1-2.8,1.1-4.5v-5c0-1.8,0.2-3.3,0.7-4.5
			c0.6-1.5,2-2.5,3.7-2.5h5.1V0.2h-5.6c-2.3,0-4.5,0.6-6.4,1.7c-1.1,0.7-2,1.5-2.7,2.5c-1.3,2-2,4.4-2,7.1v5c0,1.5-0.3,2.7-1,3.5
			c-0.7,0.8-1.7,1.3-3,1.3v2.8v2.8C26.5,26.9,27.5,27.3,28.2,28.1z"/>
		<g>
			
				<linearGradient id="SVGID_3_" gradientUnits="userSpaceOnUse" x1="48.1032" y1="77.312" x2="84.908" y2="77.312" gradientTransform="matrix(1 0 0 -1 0 112)">
				<stop  offset="0" style="stop-color:#0088D8"/>
				<stop  offset="1" style="stop-color:#02FFE2"/>
				<stop  offset="1" style="stop-color:#8B22C7"/>
			</linearGradient>
			<path class="st2" d="M78.3,24.1c-1.5,0.7-2.7,1.8-3.4,3.1s-1.1,2.8-1.1,4.5v5c0,1.8-0.2,3.3-0.7,4.5c-0.6,1.5-2,2.5-3.7,2.5H51.2
				L50.6,45c-0.6,1.2-1.4,2.2-2.5,3h21.7c2.3,0,4.5-0.6,6.4-1.7c1.1-0.7,2-1.5,2.7-2.5c1.3-1.9,2-4.3,2-7.1v-5c0-1.5,0.3-2.7,1-3.5
				c0.7-0.8,1.7-1.3,3-1.3v-2.8v-2.8C82.2,22.2,78.3,24.1,78.3,24.1z"/>
		</g>
		
			<linearGradient id="SVGID_4_" gradientUnits="userSpaceOnUse" x1="456.2325" y1="1.189" x2="493.017" y2="1.189" gradientTransform="matrix(-1 0 0 1 518.179 12.3058)">
			<stop  offset="0" style="stop-color:#63886E"/>
			<stop  offset="1" style="stop-color:#76947F"/>
		</linearGradient>
		<path class="st3" d="M31.8,24.1c1.5-0.7,2.7-1.8,3.4-3.1c0.8-1.3,1.1-2.8,1.1-4.5v-5c0-1.8,0.2-3.3,0.7-4.5c0.6-1.5,2-2.5,3.7-2.5
			h18.1l0.7-1.3c0.6-1.2,1.4-2.2,2.5-3H40.2c-2.3,0-4.5,0.6-6.4,1.7c-1.1,0.7-2,1.5-2.7,2.5c-1.4,2-2,4.4-2,7.2v5
			c0,1.5-0.3,2.7-1,3.5c-0.7,0.8-1.7,1.3-3,1.3v2.8v2.8C27.8,26,31.8,24.1,31.8,24.1z"/>
	</g>
	<g>
		<g>
			<g>
				<path class="st4" d="M77.1,63.6v3.1H64.2V50.2h12.6v3.1H68v3.6h7.7v3H68v3.8C68,63.6,77.1,63.6,77.1,63.6z"/>
				<path class="st4" d="M91.6,55.2c0.9,0.9,1.5,2.4,1.5,4.3v7.4h-3.7v-6.8c0-1-0.2-1.7-0.7-2.3c-0.5-0.5-1-0.8-2-0.8
					c-0.9,0-1.7,0.3-2.2,0.9c-0.6,0.6-0.8,1.4-0.8,2.5v6.3H80V54h3.6v1.5c0.5-0.6,1.2-0.9,1.8-1.3s1.5-0.5,2.4-0.5
					C89.4,53.9,90.6,54.3,91.6,55.2z"/>
				<path class="st4" d="M109.7,49.1v17.6h-3.6v-1.5c-0.9,1.1-2.3,1.6-4,1.6c-1.2,0-2.3-0.2-3.2-0.8c-0.9-0.6-1.7-1.3-2.3-2.3
					c-0.6-1-0.8-2.2-0.8-3.4s0.2-2.4,0.8-3.4c0.6-1,1.3-1.7,2.3-2.3c0.9-0.6,2.1-0.8,3.2-0.8c1.6,0,2.9,0.5,3.8,1.5V49h3.8V49.1z
					 M105.1,62.9c0.6-0.7,0.9-1.5,0.9-2.5s-0.3-2-0.9-2.5c-0.6-0.7-1.4-0.9-2.3-0.9c-0.9,0-1.7,0.3-2.3,0.9
					c-0.6,0.7-0.9,1.5-0.9,2.5s0.3,2,0.9,2.5c0.6,0.7,1.4,0.9,2.3,0.9C103.7,64,104.5,63.6,105.1,62.9z"/>
			</g>
		</g>
		<g>
			<g>
				<path class="st4" d="M5.7,54.3h3.2v2.9H5.7v9.7H2v-9.7H0v-2.9h2v-0.6c0-1.5,0.5-2.6,1.3-3.4C4,49.5,5.3,49,6.9,49
					c0.6,0,1,0.1,1.6,0.2c0.5,0.1,0.9,0.3,1.3,0.5l-0.9,2.6C8.4,52,8,51.9,7.4,51.9c-1.2,0-1.7,0.6-1.7,1.8
					C5.7,53.7,5.7,54.3,5.7,54.3z"/>
				<path class="st4" d="M18,54.3c0.8-0.3,1.6-0.5,2.7-0.5v3.4c-0.5,0-0.7,0-0.8,0c-1,0-1.8,0.3-2.5,0.9c-0.6,0.6-0.9,1.5-0.9,2.6v6
					h-3.7V54h3.6v1.7C16.6,55.1,17.3,54.6,18,54.3z"/>
				<path class="st4" d="M25.2,66.2c-1-0.6-2-1.4-2.5-2.3c-0.6-1-0.9-2.2-0.9-3.4s0.3-2.4,0.9-3.4c0.6-1,1.4-1.7,2.5-2.3
					c1-0.6,2.3-0.8,3.6-0.8c1.4,0,2.5,0.2,3.6,0.8c1,0.6,1.8,1.4,2.5,2.3c0.7,0.9,0.9,2.2,0.9,3.4s-0.3,2.4-0.9,3.4
					s-1.4,1.7-2.5,2.3c-1.2,0.6-2.3,0.8-3.6,0.8C27.5,67,26.2,66.6,25.2,66.2z M31.2,62.9c0.6-0.7,0.9-1.5,0.9-2.5s-0.3-2-0.9-2.5
					c-0.6-0.7-1.4-0.9-2.3-0.9s-1.7,0.3-2.3,0.9c-0.6,0.6-0.9,1.5-0.9,2.5s0.3,2,0.9,2.5c0.6,0.6,1.4,0.9,2.3,0.9
					C29.8,64,30.6,63.6,31.2,62.9z"/>
				<path class="st4" d="M50.1,55.2c0.9,0.9,1.5,2.4,1.5,4.3v7.4h-3.8v-6.8c0-1-0.2-1.7-0.7-2.3c-0.5-0.6-1-0.8-2-0.8
					s-1.7,0.3-2.2,0.9c-0.6,0.6-0.8,1.4-0.8,2.5v6.3h-3.7V54H42v1.5c0.5-0.6,1.2-0.9,1.8-1.3c0.7-0.3,1.5-0.5,2.4-0.5
					C47.7,53.9,49,54.3,50.1,55.2z"/>
				<path class="st4" d="M63.1,66.2c-0.3,0.2-0.8,0.5-1.4,0.6c-0.6,0.1-1,0.2-1.7,0.2c-1.5,0-2.7-0.3-3.6-1.1
					c-0.8-0.8-1.3-2-1.3-3.4v-5.3h-2v-2.9h2v-3.1h3.7v3.1h3.2v2.9h-3.2v5.2c0,0.6,0.1,0.9,0.5,1.3c0.2,0.3,0.7,0.5,1.2,0.5
					c0.6,0,1-0.1,1.5-0.5L63.1,66.2z"/>
			</g>
		</g>
	</g>
	
		<text transform="matrix(1 0 0 1 37.6401 108.5156)" style="display:none;enable-background:new    ; font-family:'Montserrat-Medium'; font-size:13.483px;">Store</text>
</g>
</svg>
